# xmcd CD database file
#
# Track frame offsets:
#	150
#	2603
#	32355
#	89963
#	110883
#	142413
#	184184
#	205764
#	238683
#	254333
#
# Disc length: 3597 seconds
#
# Revision: 0
# Processed by: cddbd v1.5.2PL0 Copyright (c) Steve Scherf et al.
# Submitted via: CDex 1.70beta3
#
DISCID=910e0b0a
DTITLE=ジョージ川口 - ビッグ・フォア・プラス・ワン登場！+4
DYEAR=1958
DGENRE=Jazz
TTITLE0=ビッグ・フォア・プラス・ワン・テーマ
TTITLE1=ビッグ・フォア・モップ
TTITLE2=ジャム・セッション・ブルース
TTITLE3=セブン・カム・イレブン
TTITLE4=バラード・メドレー： A)ニアネル・オブ・ユー B)マイ・ファニー・バレンタイン C)ニューヨークの秋
TTITLE5=ドラム・ブギー
TTITLE6=死刑台のエレベーター
TTITLE7=ウォーキン
TTITLE8=オールマン・リヴァー
TTITLE9=ホワイト・ジャケット
EXTD=YEAR: 1958
EXTT0=
EXTT1=
EXTT2=
EXTT3=
EXTT4=
EXTT5=
EXTT6=
EXTT7=
EXTT8=
EXTT9=
PLAYORDER=
